<?xml version="1.0" encoding="UTF-8"?>
<svg width="37px" height="40px" viewBox="0 0 37 40" version="1.1" xmlns="http://www.w3.org/2000/svg" xmlns:xlink="http://www.w3.org/1999/xlink">
    <title>Group 3</title>
    <g id="Page-1" stroke="none" stroke-width="1" fill="none" fill-rule="evenodd">
        <g id="Zeichnen" transform="translate(-1089.000000, -510.000000)" stroke="#FFFFFF" stroke-width="2">
            <g id="Group-3" transform="translate(1090.830000, 512.000000)">
                <path d="M5.85698086,14.1766638 C6.2161835,20.7664052 5.99301922,27.4138772 6.93458877,33.9458882 C7.29008837,36.4121185 14.0742283,36.0545312 14.1160895,36.0542099 C18.3402631,36.0217895 23.4344318,38.0373538 26.7746329,35.4512854 C29.3450403,33.4612108 26.5939794,15.3705099 26.4616864,14.1613514" id="Path-49"></path>
                <path d="M0,11.7563526 C10.4790771,8.61420558 24.3026053,5.67831791 34.5073789,11.2883683" id="Path-50"></path>
                <path d="M12.1800319,9.00491138 C13.4617975,-0.823168761 18.4620923,-4.6206958 19.7156312,8.06320074" id="Path-51"></path>
                <polyline id="Path-52" points="12.9590487 32.398382 12.9590487 29.820162 12.9590487 21.0576592 12.9590487 17.180759 12.9590487 15.9117465 12.9590487 15.8476259 12.9590487 15.7835054 12.9590487 15.7193849 12.9590487 15.5787025 12.9590487 15.4380201 12.9590487 15.3738996 12.9590487 15.2332172 12.9590487 15.0925348 12.9590487 14.9518524 12.9590487 14.81117 12.9590487 14.6704876 12.9590487 14.6063671 12.9590487 14.5422466 12.9590487 14.4819541 12.9590487 14.5384185"></polyline>
                <path d="M19.6629949,30.8384345 C19.4077887,25.2921671 19.1525826,19.7458997 18.8973765,14.1996323" id="Path-53"></path>
            </g>
        </g>
    </g>
</svg>