<?xml version="1.0" encoding="UTF-8"?>
<svg width="43px" height="47px" viewBox="0 0 43 47" version="1.1" xmlns="http://www.w3.org/2000/svg" xmlns:xlink="http://www.w3.org/1999/xlink">
    <title>Group 3</title>
    <g id="Page-1" stroke="none" stroke-width="1" fill="none" fill-rule="evenodd">
        <g id="Zeichnen" transform="translate(-1086.000000, -368.000000)" stroke="#FFFFFF" stroke-width="2">
            <g id="Group-3" transform="translate(1087.636864, 370.259187)">
                <path d="M6.80676154,16.4755822 C7.22421325,24.1339304 6.96486017,31.8593707 8.05911668,39.4506268 C8.47226487,42.3167863 16.3565356,41.9012119 16.4051851,41.9008385 C21.3143598,41.8631608 27.2346099,44.2055733 31.1164653,41.2001425 C34.1036955,38.8873531 30.9065167,17.8630251 30.7527707,16.4577868" id="Path-49"></path>
                <path d="M0,13.6627881 C12.1783869,10.0111038 28.2435683,6.59912622 40.1031701,13.1189145" id="Path-50"></path>
                <path d="M14.1551722,10.4651673 C15.6447917,-0.956655587 21.4559452,-5.36999782 22.9127605,9.3707468" id="Path-51"></path>
                <polyline id="Path-52" points="15.060516 37.6521737 15.060516 34.6558639 15.060516 24.4724148 15.060516 19.966828 15.060516 18.4920297 15.060516 18.4175112 15.060516 18.3429928 15.060516 18.2684743 15.060516 18.1049786 15.060516 17.9414828 15.060516 17.8669643 15.060516 17.7034686 15.060516 17.5399729 15.060516 17.3764771 15.060516 17.2129814 15.060516 17.0494856 15.060516 16.9749672 15.060516 16.9004487 15.060516 16.8303791 15.060516 16.8959998"></polyline>
                <path d="M22.8515886,35.8392617 C22.5549977,29.3935996 22.2584068,22.9479375 21.9618159,16.5022754" id="Path-53"></path>
            </g>
        </g>
    </g>
</svg>