<?xml version="1.0" encoding="UTF-8"?>
<svg width="663px" height="506px" viewBox="0 0 663 506" version="1.1" xmlns="http://www.w3.org/2000/svg" xmlns:xlink="http://www.w3.org/1999/xlink">
    <title>Path 23</title>
    <g id="Page-1" stroke="none" stroke-width="1" fill="none" fill-rule="evenodd" stroke-linejoin="bevel">
        <g id="Zeichnen" transform="translate(-388.000000, -238.000000)" fill="#FFFFFF" stroke="#000000" stroke-width="2">
            <path d="M392.243507,242.891716 C391.592704,284.837425 390.518085,326.779361 390.291098,368.728843 C388.199341,755.306687 398.071549,740.859186 402.315639,741.239581 C437.492976,744.392503 472.993752,740.062118 508.314209,738.898179 C522.233832,738.439476 618.470983,734.621551 648.709627,731.354838 C703.566884,725.428549 988.145791,732.804317 1025.4269,726.343601 C1037.27634,724.290126 1035.41965,671.143448 1041.66635,614.76678 C1049.83872,541.010786 1051.65281,458.572939 1048.60888,385.505361 C1047.70581,363.827681 1042.84629,342.40934 1041.60318,320.745989 C1040.50818,301.663614 1042.10297,282.522245 1041.60318,263.418716 C1041.48204,258.788313 1044.30372,251.566289 1039.74265,249.629869 C1025.34874,243.518878 1008.50441,244.675006 992.804447,242.701014 C941.875047,236.297547 892.719666,240.460895 841.923445,244.073012 C779.101012,248.540313 755.072221,245.779936 681.906319,247.770521 C624.822619,249.323565 528.268348,247.697297 392.243507,242.891716 Z" id="Path-23"></path>
        </g>
    </g>
</svg>