<?xml version="1.0" encoding="UTF-8"?>
<svg width="35px" height="34px" viewBox="0 0 35 34" version="1.1" xmlns="http://www.w3.org/2000/svg" xmlns:xlink="http://www.w3.org/1999/xlink">
    <title>Group 11</title>
    <g id="Page-1" stroke="none" stroke-width="1" fill="none" fill-rule="evenodd" stroke-linecap="round">
        <g id="Group-11" transform="translate(1.544649, 1.333127)" stroke="#FFFFFF" stroke-width="2">
            <path d="M4.5498292,29.5960266 C4.04708819,23.5900978 3.54434717,17.584169 3.04160615,11.5782401" id="Path-27"></path>
            <path d="M28.0137493,11.7227341 C28.0544886,18.1057043 28.095228,24.4886735 28.1359674,30.8716437" id="Path-29"></path>
            <path d="M9.76996262e-15,17.8408486 C4.01350794,13.6900052 11.2968058,4.15084345 15.3103137,0 L9.76996262e-15,17.8408486 Z" id="Path-54"></path>
            <path d="M13.7592694,0 C19.5202197,4.75358112 25.28117,9.50716224 31.0421204,14.2607434" id="Path-55"></path>
            <polyline id="Path-57" points="6.51051917 30.2411616 8.91782519 30.2411616 18.4761888 30.2411616 19.6028054 30.2411616 24.8529818 30.2411616 27.3747048 30.2411616 27.6015883 30.2411616 27.7576114 30.2411616 27.9136345 30.2411616 28.0085485 30.2411616 28.1034626 30.2411616 28.1463689 30.2411616 28.1892752 30.2411616 28.2321816 30.2411616 28.2750879 30.2411616 28.3153939 30.2411616"></polyline>
        </g>
    </g>
</svg>