<?xml version="1.0" encoding="UTF-8"?>
<svg width="29px" height="29px" viewBox="0 0 29 29" version="1.1" xmlns="http://www.w3.org/2000/svg" xmlns:xlink="http://www.w3.org/1999/xlink">
    <title>Group 11</title>
    <g id="Page-1" stroke="none" stroke-width="1" fill="none" fill-rule="evenodd" stroke-linecap="round">
        <g id="Zeichnen" transform="translate(-1150.000000, -516.000000)" stroke="#FFFFFF" stroke-width="1.5">
            <g id="Group-11" transform="translate(1151.833752, 517.500000)">
                <path d="M3.74260144,24.3451187 C3.32905641,19.4047579 2.91551138,14.464397 2.50196635,9.52403622" id="Path-27"></path>
                <path d="M23.043568,9.64289416 C23.0770794,14.893402 23.1105908,20.1439088 23.1441022,25.3944166" id="Path-29"></path>
                <path d="M8.03658215e-15,14.6755368 C3.30143395,11.2611333 9.29253379,3.41440348 12.5939677,0 L8.03658215e-15,14.6755368 Z" id="Path-54"></path>
                <path d="M11.3181087,0 C16.0569549,3.91020383 20.7958012,7.82040765 25.5346474,11.7306115" id="Path-55"></path>
                <polyline id="Path-57" points="5.35542706 24.8757943 7.3356304 24.8757943 15.1981553 24.8757943 16.1248883 24.8757943 20.4435818 24.8757943 22.5179023 24.8757943 22.7045323 24.8757943 22.8328739 24.8757943 22.9612155 24.8757943 23.0392899 24.8757943 23.1173644 24.8757943 23.1526583 24.8757943 23.1879522 24.8757943 23.2232461 24.8757943 23.2585401 24.8757943 23.291695 24.8757943"></polyline>
            </g>
        </g>
    </g>
</svg>