<?xml version="1.0" encoding="UTF-8"?>
<svg width="26px" height="24px" viewBox="0 0 26 24" version="1.1" xmlns="http://www.w3.org/2000/svg" xmlns:xlink="http://www.w3.org/1999/xlink">
    <title>Group 2</title>
    <defs>
        <filter id="filter-1">
            <feColorMatrix in="SourceGraphic" type="matrix" values="0 0 0 0 1.000000 0 0 0 0 1.000000 0 0 0 0 1.000000 0 0 0 1.000000 0"></feColorMatrix>
        </filter>
    </defs>
    <g id="Page-1" stroke="none" stroke-width="1" fill="none" fill-rule="evenodd" stroke-linecap="round">
        <g id="Group-2" transform="translate(-1183.000000, -521.000000)" filter="url(#filter-1)">
            <g transform="translate(1195.272341, 533.058412) scale(-1, 1) translate(-1195.272341, -533.058412) translate(1183.272341, 522.558412)">
                <path d="M4.8116188,0.614996701 C9.4629407,0.614996701 14.1208771,0.376046635 18.7655837,0.614996701 C20.4765246,0.703017212 21.6098672,0.248068427 22.663446,1.55000302 C23.483463,2.56331938 22.660271,3.96216735 22.5072265,5.23864183 C20.2810591,23.806096 24.9698378,20.7906984 5.65461195,19.6096573" id="Path-42" stroke="#979797" stroke-width="1.5"></path>
                <g id="Group-10" transform="translate(7.978565, 10.226724) scale(-1, 1) translate(-7.978565, -10.226724) translate(0.478565, 4.726724)" stroke="#979797" stroke-width="1.5">
                    <polyline id="Path-43" points="0.0384740916 5.46708918 6.26596692 5.46708918 12.7833673 5.46708918 14.0231723 5.46708918"></polyline>
                    <path d="M9.72310208,0.817057283 C17.7845066,7.33053406 15.8762139,3.74860344 8.21173045,10.145703" id="Path-44"></path>
                </g>
            </g>
        </g>
    </g>
</svg>